<?xml version="1.0" encoding="utf-8"?>
<!-- Generator: Adobe Illustrator 24.0.1, SVG Export Plug-In . SVG Version: 6.00 Build 0)  -->
<svg version="1.1" id="Layer_1" xmlns="http://www.w3.org/2000/svg" xmlns:xlink="http://www.w3.org/1999/xlink" x="0px" y="0px"
	 viewBox="0 0 91 50" style="enable-background:new 0 0 91 50;" xml:space="preserve">
<style type="text/css">
	.st0{fill:#09304A;}
	.st1{fill:#91C18F;}
	.st2{fill:#D8AB28;}
	.st3{fill:none;}
	.st4{fill:#FFFFFF;}
</style>
<g>
	<polygon class="st0" points="0,29.04 9.23,26.86 19,33.78 13.24,35.93 	"/>
	<polygon class="st1" points="37.73,30.96 30.9,44.62 30.73,32.76 30.81,32.69 30.47,14.66 37.22,21.84 	"/>
	<polygon class="st0" points="37.73,30.96 30.9,44.62 30.73,32.76 30.47,14.66 37.22,21.84 	"/>
	<polygon class="st2" points="30.73,32.76 12.19,50 30.47,14.66 	"/>
	<polygon class="st2" points="30.73,32.76 12.19,50 30.47,14.66 	"/>
	<polygon class="st2" points="26.49,15.41 18.15,24.75 0,29.04 6.22,19.64 	"/>
	<polygon class="st2" points="7.4,38.1 19,33.78 10.45,50 	"/>
	<polygon class="st2" points="44.19,18.03 37.73,30.96 30.9,44.62 48.33,29.28 	"/>
	<line class="st3" x1="30.9" y1="44.63" x2="48.33" y2="29.29"/>
	<polygon class="st4" points="82.34,15.21 82.28,15.26 81.55,15.87 80.6,16.67 69.92,25.62 64.72,29.97 69.89,25.62 82.32,15.14 	
		"/>
	<polygon class="st2" points="49.49,32.34 52.48,40.22 59.07,34.7 59.11,34.7 62.05,32.22 64.72,29.97 69.92,25.62 80.59,16.67 
		81.55,15.87 82.28,15.26 82.34,15.21 82.37,15.18 86.74,18.96 91,0.15 66.81,7.27 76.23,10.14 56.35,25.48 48.91,30.81 	"/>
	<polygon class="st0" points="52.6,17.32 44.19,18.03 48.33,29.28 48.91,30.81 56.35,25.48 	"/>
</g>
</svg>
